<?xml version="1.0" standalone="no"?>
<!DOCTYPE svg PUBLIC "-//W3C//DTD SVG 20010904//EN"
 "http://www.w3.org/TR/2001/REC-SVG-20010904/DTD/svg10.dtd">
<svg version="1.0" xmlns="http://www.w3.org/2000/svg"
 width="16.000000pt" height="16.000000pt" viewBox="0 0 16.000000 16.000000"
 preserveAspectRatio="xMidYMid meet">
<metadata>
Created by potrace 1.11, written by Peter Selinger 2001-2013
</metadata>
<g transform="translate(0.000000,16.000000) scale(0.002073,-0.002073)"
fill="#000000" stroke="none">
<path d="M17 6833 c-10 -19 6 -711 19 -836 2 -26 7 -92 9 -148 3 -55 7 -113
10 -127 2 -15 7 -63 11 -107 7 -98 10 -128 18 -185 8 -59 15 -113 22 -180 5
-54 60 -410 70 -460 2 -14 11 -59 19 -100 7 -41 18 -95 24 -120 5 -25 12 -56
15 -70 13 -73 39 -184 57 -250 11 -41 22 -84 24 -95 7 -39 34 -138 60 -224 9
-30 18 -62 20 -70 2 -9 10 -36 18 -61 8 -25 29 -90 46 -145 18 -55 36 -109 40
-120 5 -11 37 -94 71 -185 34 -91 77 -196 94 -235 18 -38 39 -86 47 -105 39
-95 247 -493 260 -498 5 -2 9 -9 9 -15 1 -10 42 -76 154 -248 40 -61 218 -295
261 -344 19 -22 47 -53 61 -70 88 -100 251 -258 334 -325 24 -19 49 -41 56
-48 7 -7 64 -48 126 -92 62 -44 118 -84 125 -90 7 -5 14 -10 17 -10 2 0 40
-21 83 -46 84 -50 283 -147 328 -160 6 -1 55 -19 110 -39 55 -20 111 -39 125
-41 14 -3 48 -11 75 -19 43 -12 123 -28 250 -50 141 -24 523 -24 645 0 13 2
42 7 65 10 33 5 109 20 199 40 45 10 204 58 231 70 17 7 53 21 80 31 28 10 65
26 83 36 17 10 32 16 32 14 0 -3 39 16 88 41 48 25 97 51 109 57 13 6 23 14
23 19 0 4 5 7 11 7 12 0 199 118 214 136 6 6 26 22 46 35 109 72 357 305 496
466 65 75 75 88 118 143 22 29 49 63 60 76 11 13 40 53 65 89 49 71 40 67 125
49 11 -2 31 -6 45 -9 14 -2 36 -7 50 -10 23 -4 138 -14 223 -18 20 -1 37 0 37
3 0 3 42 6 93 7 110 2 254 31 397 79 103 35 276 116 331 155 15 10 32 19 37
19 6 0 12 3 14 8 2 4 28 25 58 47 74 54 92 69 175 150 245 240 406 560 459
912 11 73 15 328 6 408 -2 26 -20 137 -24 150 -1 6 -6 26 -10 45 -27 129 -140
401 -192 460 -7 8 -13 18 -13 23 -1 21 -175 238 -237 297 -139 130 -316 253
-434 300 -65 26 -65 27 -45 182 7 56 20 191 30 313 3 39 8 104 11 145 11 132
23 478 28 778 l2 162 -3398 0 c-1868 0 -3399 -3 -3401 -7z m6534 -270 c5 -106
-17 -615 -35 -798 -3 -27 -8 -84 -11 -125 -3 -41 -8 -97 -11 -125 -3 -27 -7
-61 -9 -75 -1 -14 -5 -43 -9 -65 -3 -22 -8 -62 -11 -90 -9 -82 -23 -187 -31
-227 -3 -15 -7 -40 -9 -57 -2 -16 -9 -56 -14 -88 -6 -32 -13 -73 -16 -90 -7
-47 -14 -84 -20 -113 -3 -14 -7 -36 -10 -50 -6 -35 -22 -110 -29 -140 -4 -14
-8 -34 -10 -45 -2 -11 -10 -42 -16 -70 -6 -27 -13 -58 -15 -68 -2 -10 -7 -27
-10 -37 -3 -10 -8 -27 -10 -37 -6 -30 -53 -209 -70 -265 -13 -44 -23 -58 -59
-80 -94 -60 -293 -148 -366 -163 -8 -2 -33 -8 -55 -13 -72 -19 -148 -26 -280
-26 -115 0 -239 10 -256 20 -3 2 -21 6 -40 9 -41 7 -108 24 -129 32 -8 3 -24
8 -35 10 -75 14 -376 149 -513 230 -41 24 -77 43 -80 43 -6 1 -112 68 -137 87
-6 4 -26 17 -45 27 -19 11 -51 31 -70 46 -19 15 -46 33 -59 40 -14 7 -30 17
-35 22 -17 14 -276 202 -295 213 -9 6 -18 12 -21 15 -3 3 -30 23 -60 45 -30
22 -56 43 -58 47 -2 5 -10 8 -17 8 -7 0 -15 4 -17 9 -4 11 -239 182 -349 255
-46 30 -89 60 -96 66 -7 5 -15 10 -19 10 -3 0 -18 8 -32 19 -72 49 -405 219
-482 246 -3 0 -23 9 -45 19 -56 24 -226 83 -310 107 -38 11 -77 22 -85 24 -32
10 -247 55 -280 60 -19 2 -53 7 -75 10 -124 18 -212 22 -410 19 -121 -1 -238
-6 -260 -9 -75 -12 -250 -44 -270 -48 -45 -11 -153 -41 -175 -50 -14 -5 -89
-30 -100 -32 -8 -3 -41 -16 -128 -52 -46 -20 -85 -33 -87 -31 -5 4 -12 54 -20
138 -3 25 -7 59 -9 75 -7 52 -17 148 -21 200 -2 28 -4 50 -5 50 -1 0 -6 61
-14 185 -4 52 -9 118 -11 145 -2 28 -7 142 -10 255 -4 113 -8 226 -9 253 l-2
47 3138 0 c2982 0 3138 -1 3139 -17z m219 -1584 c3 -3 24 -16 48 -29 23 -13
42 -27 42 -32 0 -4 6 -8 13 -8 38 0 261 -224 339 -341 106 -158 179 -330 215
-511 27 -137 23 -437 -8 -539 -6 -19 -12 -45 -15 -59 -11 -56 -63 -194 -93
-250 -67 -125 -119 -204 -181 -274 -54 -61 -137 -143 -175 -171 -22 -17 -42
-32 -45 -36 -10 -11 -95 -66 -140 -90 -25 -13 -47 -26 -50 -29 -8 -9 -128 -58
-208 -85 -119 -40 -244 -58 -392 -59 -134 0 -219 6 -253 19 -16 7 -15 11 10
54 36 61 63 111 142 266 69 133 71 137 79 168 2 9 8 17 13 17 5 0 9 7 9 15 0
8 4 23 9 33 21 40 59 129 66 152 4 14 11 30 15 35 3 6 15 33 25 60 9 28 23 64
30 80 23 52 122 336 130 372 3 10 20 69 40 132 19 63 37 123 40 135 2 12 9 37
14 56 10 36 37 140 46 175 48 204 54 230 61 275 3 19 8 38 10 41 2 4 6 24 10
44 3 21 8 47 10 59 3 11 7 32 9 46 2 14 6 34 9 45 5 28 38 216 41 240 1 11 3
23 4 27 1 7 71 -21 81 -33z"/>
</g>
</svg>
