<?xml version="1.0" encoding="UTF-8"?>
<svg width="75px" height="67px" viewBox="0 0 75 67" version="1.1" xmlns="http://www.w3.org/2000/svg" xmlns:xlink="http://www.w3.org/1999/xlink">
    <!-- Generator: Sketch 44.1 (41455) - http://www.bohemiancoding.com/sketch -->
    <title>Page 1</title>
    <desc>Created with Sketch.</desc>
    <defs></defs>
    <g id="Home" stroke="none" stroke-width="1" fill="none" fill-rule="evenodd">
        <g id="Desktop-HD-Copy" transform="translate(-1107.000000, -734.000000)" fill="#0E1031">
            <g id="Page-1" transform="translate(1107.000000, 734.000000)">
                <path d="M24.387033,39.8713546 C26.7270055,39.864033 29.066978,39.8568495 31.4069505,39.8495278 C33.5326374,39.8428969 33.5331868,36.527433 31.4069505,36.5340639 C30.2657418,36.5375175 29.124533,36.5412474 27.9833242,36.544701 C28.3786538,36.1473979 28.7820879,35.7583835 29.1884066,35.3736515 C30.463956,34.1664082 32.3476099,32.8163237 32.4160165,30.8825794 C32.5002198,28.5059443 30.5333242,26.7957175 28.3172527,26.5575567 C26.3566758,26.3468866 23.7107967,27.0452062 23.0704121,29.1889299 C22.4741209,31.1852536 25.4660165,32.0628845 26.1923901,30.2317814 C26.193489,30.2299856 26.1945879,30.2281897 26.1956868,30.2263938 C26.2182143,30.2011134 26.2348352,30.1813588 26.2462363,30.1665773 C26.2708242,30.1530392 26.3020055,30.1348041 26.3458242,30.1071753 C26.3988462,30.0756784 26.4540659,30.0480495 26.5091484,30.019868 C26.5311264,30.012132 26.5570879,30.0027381 26.5910165,29.9904433 C26.6719231,29.9624 27.1360714,29.8563052 27.0379945,29.8687381 C27.6411538,29.7926206 28.0257692,29.8109938 28.509011,29.9542495 C28.4127198,29.9303505 28.5936264,30.0126845 28.7261813,30.0760928 C28.7478846,30.0997155 28.8173901,30.1580124 28.8807143,30.2123031 C28.9173901,30.2672845 29.0009066,30.3795959 29.0368956,30.4392742 C29.0583242,30.5051691 29.0776923,30.5720309 29.0958242,30.6388928 C29.1035165,30.6677649 29.1114835,30.7096227 29.118489,30.7521711 C29.1186264,30.7575588 29.118489,30.7629464 29.1186264,30.7681959 C29.1087363,30.7835299 29.0989835,30.7988639 29.0888187,30.8140598 C29.0801648,30.8241443 29.0726099,30.8328474 29.0621703,30.8451423 C28.8055769,31.1475402 28.5201374,31.425901 28.2388187,31.7044 C27.3143681,32.6187773 26.3482967,33.4889485 25.4382692,34.4182454 C24.5580495,35.3171505 23.6219231,36.2934165 22.9636813,37.3768825 C22.3094231,38.454132 23.1548901,39.8750845 24.387033,39.8713546 M38.5459615,33.2978948 C38.5477473,33.6892577 38.549533,34.0806206 38.551044,34.4718454 L37.7083242,34.4718454 C37.9874451,34.0806206 38.2667033,33.6892577 38.5459615,33.2978948 M34.2410165,37.7670021 C34.3221978,37.7797113 34.4028297,37.7867567 34.4829121,37.7862041 C34.4903297,37.7863423 34.4971978,37.7873093 34.5046154,37.7873093 L38.5657418,37.7873093 L38.5673901,38.2017423 C38.5768681,40.3393876 41.8735714,40.3402165 41.8640934,38.2017423 C41.8636813,38.0577959 41.8629945,37.9138495 41.8624451,37.7697649 C43.6647802,37.5336763 43.6602473,34.7091773 41.8478846,34.4870412 C41.8386813,32.3876619 41.829478,30.2882825 41.8202747,28.1887649 C41.8172527,27.4510742 41.3197253,26.7864619 40.6102473,26.5901588 C39.8462363,26.3787979 39.1851099,26.7403216 38.7487088,27.3520247 C36.8595604,29.9990082 34.9704121,32.6458536 33.0812637,35.2928371 C32.6845604,35.8487299 32.8140934,36.6168124 33.2118956,37.1424515 C33.4329121,37.4639134 33.7767308,37.7011072 34.2410165,37.7670021 M22.5297527,22.0311196 C25.9720604,17.3697155 31.7911538,14.6485485 37.6325,14.7315732 C43.4499451,14.8141835 49.0775549,17.8843031 52.3826374,22.6194763 C54.6213736,25.8273258 55.7349725,29.5005835 55.752967,33.341134 C55.7253571,39.233266 52.880989,44.9239835 48.2004945,48.3550742 C43.2423901,51.9897897 36.977967,52.8827546 31.2075,50.944866 C25.7848352,49.1239856 21.3837363,44.5225361 19.6257692,39.0611381 C17.7507692,33.235868 18.8804396,26.973233 22.5297527,22.0311196 M30.680989,54.2577052 C36.8628571,56.2701918 43.8721978,55.2306557 49.271511,51.6324103 C55.3411538,47.5875443 59.015467,40.6511794 59.0496703,33.341134 C59.0194505,26.8773608 56.1557143,20.6322701 51.1970604,16.4981629 C46.0805769,12.2321278 39.3439011,10.5890392 32.8362088,11.8649402 C26.6289286,13.0815773 21.1607967,17.2616866 18.1198626,22.8019649 C14.9787912,28.5243175 14.5783791,35.640132 17.0831868,41.6722041 C19.5706868,47.662833 24.5373077,52.2575134 30.680989,54.2577052 M68.7678022,38.6900825 C67.9367582,38.4602103 66.9323626,38.9651278 66.7400549,39.8478701 C65.4127198,45.9400351 62.3665659,51.3215856 57.8612088,55.5843052 C53.3969231,59.8083443 47.6951374,62.4901402 41.5368956,63.3970577 C35.5628571,64.276899 29.0807143,63.1062639 23.7003571,60.3041443 C18.3412912,57.5130763 14.0305769,53.2119526 11.1345604,47.9125979 C10.0503571,45.9288454 9.21052198,43.8211773 8.60461538,41.6166701 C9.51436813,42.3585052 10.4241209,43.1004784 11.334011,43.8423134 C12.0311264,44.4107773 12.9805769,44.5306866 13.6650549,43.8423134 C14.2506319,43.2534041 14.363956,42.0678495 13.6650549,41.497866 C11.6129945,39.8245237 9.56093407,38.1511814 7.50887363,36.4778392 C6.6743956,35.7973402 5.67947802,35.8770495 5.01505495,36.6914103 C4.9178022,36.7900454 4.83758242,36.9015278 4.77151099,37.0215753 C3.26120879,39.1409856 1.75076923,41.260534 0.240467033,43.3798062 C-0.283846154,44.1158392 0.110934066,45.2232041 0.831950549,45.6478598 C1.66148352,46.1367526 2.56491758,45.7861423 3.08717033,45.0532866 L5.29129121,41.9602351 C8.1906044,53.1717526 16.9770055,62.3170454 28.1143681,65.6377588 C40.7818132,69.4143485 54.9140934,64.9489711 63.221511,54.6503113 C66.488544,50.6001959 68.8080495,45.8281381 69.9190385,40.7293691 C70.1112088,39.8474557 69.6676648,38.9390186 68.7678022,38.6900825 M74.1408791,21.4203835 C73.3112088,20.9316289 72.4079121,21.2822392 71.885522,22.0150948 C71.1259066,23.0812928 70.3661538,24.1476289 69.6062637,25.2136887 C68.3382692,20.3164722 66.0212363,15.7869959 62.7326374,11.8598289 C58.6721978,7.0106866 53.1621703,3.44490515 47.1531044,1.57484536 C34.5781044,-2.33850722 20.4539286,1.93443505 12.0172527,12.0515732 C8.50255495,16.2664948 6.03483516,21.3205052 4.92123626,26.7096536 C4.73854396,27.593501 5.1656044,28.497932 6.07247253,28.7488021 C6.89637363,28.9767402 7.91725275,28.4761052 8.10021978,27.5910144 C9.35708791,21.5087959 12.3228846,16.108734 16.7377198,11.8174186 C21.1283791,7.54944948 26.7191758,4.80175876 32.8242582,3.79192371 C38.7776923,2.80723093 45.3004945,3.84814845 50.7128571,6.54583093 C56.1286538,9.24503299 60.5216484,13.4678289 63.5022802,18.6990784 C64.4727473,20.4023979 65.1557143,21.9461608 65.7676648,23.7330577 C65.9470604,24.2564866 66.1172527,24.8111361 66.2746703,25.3760082 C65.3960989,24.6594536 64.5172527,23.942899 63.6386813,23.2264825 C62.9415659,22.6578804 61.991978,22.5381093 61.3075,23.2264825 C60.7220604,23.8152536 60.6085989,25.0008082 61.3075,25.5707918 C63.3598352,27.2442722 65.4117582,28.9177526 67.4638187,30.5910948 C67.8470604,30.9035773 68.2642308,31.0559505 68.6676648,31.0508392 C68.7026923,31.0529113 68.737033,31.0559505 68.7734341,31.0559505 C69.4734341,31.0559505 70.2859341,30.4858289 70.4134066,29.7493814 C71.852967,27.7290206 73.2926648,25.7086598 74.7322253,23.6884371 C75.2565385,22.9525423 74.8618956,21.8451773 74.1408791,21.4203835 M47.8682143,38.1301835 L47.8682143,34.773967 C48.0334615,34.7135979 48.2011813,34.6602742 48.3726099,34.6206268 C48.4011813,34.6199361 48.4345604,34.6206268 48.4687637,34.6221464 C48.4969231,34.6540577 48.5242582,34.6869361 48.546511,34.7134598 C48.5804396,34.7706515 48.610522,34.8300536 48.6406044,34.8893175 C48.5991209,34.825633 48.7723352,35.2516701 48.7992582,35.3446412 C48.8702747,35.5915052 48.9180769,35.8447237 48.9629945,36.0972515 C49.0316758,36.484332 49.0752198,37.4724784 49.0786538,38.1301835 C49.0900549,40.2676907 52.3867582,40.2687959 52.3753571,38.1301835 C52.3621703,35.6804701 52.1138187,32.451899 49.4675275,31.4543588 C48.9808516,31.2709031 48.4164286,31.2616474 47.8796154,31.3459155 L47.8682143,28.1206598 C47.8606593,25.9830144 44.571511,25.9824619 44.571511,28.1206598 L44.571511,38.1301835 C44.571511,40.2682433 47.8682143,40.2682433 47.8682143,38.1301835" id="Fill-1"></path>
            </g>
        </g>
    </g>
</svg>