<?xml version="1.0" encoding="UTF-8"?>
<svg width="24px" height="24px" viewBox="0 0 24 24" version="1.1" xmlns="http://www.w3.org/2000/svg" xmlns:xlink="http://www.w3.org/1999/xlink">
    <!-- Generator: Sketch 43.2 (39069) - http://www.bohemiancoding.com/sketch -->
    <title>Group 10</title>
    <desc>Created with Sketch.</desc>
    <defs>
        <filter x="-1.2%" y="-1.3%" width="102.5%" height="102.6%" filterUnits="objectBoundingBox" id="filter-1">
            <feOffset dx="0" dy="0" in="SourceAlpha" result="shadowOffsetOuter1"></feOffset>
            <feGaussianBlur stdDeviation="1.5" in="shadowOffsetOuter1" result="shadowBlurOuter1"></feGaussianBlur>
            <feColorMatrix values="0 0 0 0 0   0 0 0 0 0   0 0 0 0 0  0 0 0 0.5 0" type="matrix" in="shadowBlurOuter1" result="shadowMatrixOuter1"></feColorMatrix>
            <feMerge>
                <feMergeNode in="shadowMatrixOuter1"></feMergeNode>
                <feMergeNode in="SourceGraphic"></feMergeNode>
            </feMerge>
        </filter>
        <polygon id="path-2" points="18.7261136 18.7214364 0.000159090909 18.7214364 0.000159090909 -7.10542736e-15 18.7261136 -7.10542736e-15"></polygon>
    </defs>
    <g id="Home" stroke="none" stroke-width="1" fill="none" fill-rule="evenodd">
        <g id="Desktop-HD" transform="translate(-200.000000, -1020.000000)">
            <g id="Group-7" filter="url(#filter-1)" transform="translate(150.000000, 712.000000)" fill="#FFFFFF">
                <rect id="Rectangle-4" x="0" y="166.829268" width="360" height="184.149994" rx="2"></rect>
            </g>
            <g id="Group-10" transform="translate(200.000000, 1020.000000)">
                <rect id="Rectangle-6-Copy" fill="#D8D8D8" opacity="0" x="0" y="0" width="24" height="24"></rect>
                <g id="Page-1" transform="translate(3.000000, 3.000000)">
                    <mask id="mask-3" fill="white">
                        <use xlink:href="#path-2"></use>
                    </mask>
                    <g id="Clip-2"></g>
                    <path d="M3.63315909,15.2857727 C7.72275,13.2296818 10.37225,11.1109091 12.08725,9.198 C12.46525,9.65745455 12.8235227,10.1493636 13.1515682,10.6800909 C13.0325682,10.8016364 12.9142045,10.9292273 12.7974318,11.0679545 C12.7080227,11.1735909 10.7352955,13.5685455 12.2390227,17.0895455 C11.3423864,17.4239545 10.3732045,17.6078636 9.36138636,17.6078636 C7.13761364,17.6078636 5.11811364,16.7217273 3.63315909,15.2857727 M1.20893182,8.10568182 C2.48611364,8.73790909 3.63475,8.98322727 4.64593182,8.98322727 C7.13315909,8.98322727 8.78961364,7.51163636 9.49470455,6.72922727 C9.89020455,7.02736364 10.2837955,7.34840909 10.6678409,7.69968182 C10.9300227,7.399 11.1731136,7.07286364 11.3532045,6.81831818 C10.9487955,6.45304545 10.5354773,6.11990909 10.1205682,5.81 C11.0362955,3.98268182 10.8647955,2.20818182 10.6395227,1.21290909 C11.9128864,1.41177273 13.0898409,1.904 14.1013409,2.61672727 C14.0806591,3.60627273 13.4719773,9.18209091 2.86029545,14.4266818 C1.76734091,13.0276364 1.11379545,11.2696818 1.11379545,9.36122727 C1.11379545,8.93422727 1.14625,8.51518182 1.20893182,8.10568182 M3.37479545,3.69695455 C4.12634091,3.90727273 5.85025,4.46281818 7.75552273,5.57359091 C7.97220455,5.39636364 8.21115909,5.01390909 8.38679545,4.65786364 C6.78602273,3.71604545 5.30234091,3.14395455 4.33602273,2.828 C5.72870455,1.75445455 7.47138636,1.11363636 9.36138636,1.11363636 C9.39543182,1.11363636 9.42852273,1.11586364 9.46225,1.1165 C9.65379545,1.77863636 9.99743182,3.46659091 9.19115909,5.18477273 C9.04320455,5.47431818 8.84084091,5.8135 8.59075,6.09 C8.59138636,6.09031818 8.59170455,6.09063636 8.59202273,6.09095455 C7.73420455,7.03913636 5.31952273,9.02713636 1.46443182,6.98345455 C1.84020455,5.73872727 2.50265909,4.61840909 3.37479545,3.69695455 M17.6045227,9.04081818 C16.7705682,8.94059091 15.3880682,8.98322727 14.0093864,9.947 C13.6406136,9.36631818 13.2397045,8.82827273 12.8165227,8.32936364 C14.4153864,6.28122727 14.9566136,4.54045455 15.1335227,3.47518182 C16.5904773,4.90318182 17.5205227,6.86477273 17.6045227,9.04081818 M14.5751136,10.9219091 C15.7632045,10.0621818 16.9465227,10.066 17.5733409,10.1579545 C17.4193409,11.7555455 16.8065227,13.2204545 15.8697955,14.4212727 C15.5722955,13.1253182 15.1255682,11.9636364 14.5751136,10.9219091 M13.6485682,11.7864091 C13.67275,11.7574545 13.6975682,11.7348636 13.7220682,11.7068636 C14.27125,12.8049091 14.69475,14.0426364 14.9352955,15.4353182 C14.42875,15.9001818 13.8639773,16.3023636 13.2533864,16.6304091 C12.0481136,13.7686818 13.5788864,11.8704091 13.6485682,11.7864091 M9.36138636,-7.10542736e-15 C4.19125,-7.10542736e-15 0.000159090909,4.19109091 0.000159090909,9.36122727 C0.000159090909,14.5307273 4.19125,18.7215 9.36138636,18.7215 C14.5350227,18.7215 18.7261136,14.5307273 18.7261136,9.36122727 C18.7261136,4.19109091 14.5350227,-7.10542736e-15 9.36138636,-7.10542736e-15" id="Fill-1" fill="#39434E" mask="url(#mask-3)"></path>
                </g>
            </g>
        </g>
    </g>
</svg>