<?xml version="1.0" encoding="UTF-8"?>
<svg width="24px" height="24px" viewBox="0 0 24 24" version="1.1" xmlns="http://www.w3.org/2000/svg" xmlns:xlink="http://www.w3.org/1999/xlink">
    <!-- Generator: Sketch 43.2 (39069) - http://www.bohemiancoding.com/sketch -->
    <title>Group 11</title>
    <desc>Created with Sketch.</desc>
    <defs>
        <filter x="-1.2%" y="-1.3%" width="102.5%" height="102.6%" filterUnits="objectBoundingBox" id="filter-1">
            <feOffset dx="0" dy="0" in="SourceAlpha" result="shadowOffsetOuter1"></feOffset>
            <feGaussianBlur stdDeviation="1.5" in="shadowOffsetOuter1" result="shadowBlurOuter1"></feGaussianBlur>
            <feColorMatrix values="0 0 0 0 0   0 0 0 0 0   0 0 0 0 0  0 0 0 0.5 0" type="matrix" in="shadowBlurOuter1" result="shadowMatrixOuter1"></feColorMatrix>
            <feMerge>
                <feMergeNode in="shadowMatrixOuter1"></feMergeNode>
                <feMergeNode in="SourceGraphic"></feMergeNode>
            </feMerge>
        </filter>
    </defs>
    <g id="Home" stroke="none" stroke-width="1" fill="none" fill-rule="evenodd">
        <g id="Desktop-HD" transform="translate(-165.000000, -1021.000000)">
            <g id="Group-7" filter="url(#filter-1)" transform="translate(150.000000, 712.000000)" fill="#FFFFFF">
                <rect id="Rectangle-4" x="0" y="166.829268" width="360" height="184.149994" rx="2"></rect>
            </g>
            <g id="Group-11" transform="translate(165.000000, 1021.000000)">
                <rect id="Rectangle-6-Copy-2" fill="#D8D8D8" opacity="0" x="0" y="0" width="24" height="24"></rect>
                <g id="Group-8" transform="translate(0.000000, 3.000000)" fill="#39434E">
                    <path d="M4.57112727,11.6719273 L1.87835455,11.6719273 L4.84317273,8.63392727 C4.99971818,8.47356364 5.0449,8.23524545 4.95771818,8.02874545 C4.87085455,7.82256364 4.66880909,7.68829091 4.44480909,7.68829091 L2.68367273,7.68829091 L5.05380909,4.77597273 C5.18935455,4.60924545 5.21703636,4.37951818 5.12476364,4.18542727 C5.03249091,3.99133636 4.83680909,3.86756364 4.62203636,3.86756364 L3.76167273,3.86756364 L5.90049091,1.38065455 L8.03930909,3.86756364 L7.17926364,3.86756364 C6.96449091,3.86756364 6.76880909,3.99133636 6.67653636,4.18542727 C6.58426364,4.37951818 6.61194545,4.60924545 6.74749091,4.77597273 L8.55635455,6.99910909 L9.29103636,6.13779091 L8.35017273,4.9812 L9.25253636,4.9812 C9.47017273,4.9812 9.66808182,4.85456364 9.75876364,4.65665455 C9.84944545,4.45906364 9.81667273,4.22647273 9.67476364,4.06133636 L6.34626364,0.191290909 C6.23044545,0.0570181818 6.06467273,-0.0063 5.90049091,0.000381818182 C5.73599091,-0.0063 5.57021818,0.0570181818 5.45471818,0.191290909 L2.1259,4.06133636 C1.98399091,4.22647273 1.95121818,4.45906364 2.04221818,4.65665455 C2.1329,4.85456364 2.33049091,4.9812 2.54812727,4.9812 L3.45080909,4.9812 L1.08067273,7.89351818 C0.945127273,8.06024545 0.917445455,8.29029091 1.00971818,8.48406364 C1.10199091,8.67815455 1.29767273,8.80192727 1.51276364,8.80192727 L3.12308182,8.80192727 L0.158263636,11.8399273 C0.00203636364,12.0002909 -0.0431454545,12.2386091 0.0437181818,12.4451091 C0.130581818,12.6512909 0.332945455,12.7855636 0.556945455,12.7855636 L3.62135455,12.7855636 L4.57112727,11.6719273 Z" id="Fill-1"></path>
                    <path d="M18.4106364,12.6126318 L18.4106364,16.8081773 L13.0114091,16.8081773 L13.0114091,8.73940455 C13.0114091,8.43204091 12.7619545,8.18258636 12.4545909,8.18258636 C12.1469091,8.18258636 11.8977727,8.43204091 11.8977727,8.73940455 L11.8977727,16.8081773 L6.49854545,16.8081773 L6.49854545,12.6126318 L6.48454545,12.6126318 L12.4545909,5.61263182 L18.4243182,12.6126318 L18.4106364,12.6126318 Z M23.0268182,14.8653591 C22.7528636,14.7256773 22.4175,14.8344955 22.2778182,15.10845 L22.1804545,15.2999955 L12.894,4.41181364 C12.7794545,4.27722273 12.6146364,4.21358636 12.4510909,4.21899545 C12.2894545,4.21549545 12.1281364,4.27945 12.0151818,4.41181364 L2.72872727,15.2999955 L2.63136364,15.10845 C2.49168182,14.8344955 2.15663636,14.7256773 1.88236364,14.8653591 C1.60840909,15.0047227 1.49959091,15.3400864 1.63927273,15.6140409 L2.70804545,17.7118136 C2.80636364,17.90495 3.00172727,18.0159955 3.20440909,18.0159955 C3.28968182,18.0159955 3.37590909,17.9965864 3.45672727,17.9552227 C3.731,17.8158591 3.83981818,17.4804955 3.70013636,17.2065409 L3.27313636,16.3681318 C3.28713636,16.3547682 3.30272727,16.3433136 3.31545455,16.3283591 L5.38490909,13.9022227 L5.38490909,17.9218136 L19.5242727,17.9218136 L19.5242727,13.9019045 L21.5934091,16.3283591 C21.6064545,16.3436318 21.6220455,16.3547682 21.6360455,16.3681318 L21.2090455,17.2065409 C21.0693636,17.4804955 21.1781818,17.8158591 21.4524545,17.9552227 C21.5332727,17.9965864 21.6195,18.0159955 21.7047727,18.0159955 C21.9074545,18.0159955 22.1028182,17.90495 22.2011364,17.7118136 L23.2699091,15.6140409 C23.4095909,15.3400864 23.3007727,15.0047227 23.0268182,14.8653591 L23.0268182,14.8653591 Z" id="Fill-4"></path>
                    <path d="M20.0167864,2.12211364 C19.3447864,2.83643182 18.94865,3.79002273 18.94865,4.80693182 C18.94865,5.82415909 19.3447864,6.77743182 20.0167864,7.49143182 C18.7068318,7.29797727 17.6975591,6.16970455 17.6975591,4.80693182 C17.6975591,3.44415909 18.70715,2.31588636 20.0167864,2.12211364 M20.4148318,8.63784091 C20.8389682,8.63784091 21.2615136,8.56402273 21.6710136,8.42147727 C21.6732409,8.42084091 21.6754682,8.41988636 21.6773773,8.41956818 C21.6866045,8.41606818 21.6958318,8.41415909 21.7050591,8.41097727 C21.7438773,8.39697727 21.7795136,8.37884091 21.8132409,8.35784091 C21.8192864,8.35370455 21.8243773,8.34893182 21.8301045,8.34479545 C21.8647864,8.32125 21.8953318,8.29420455 21.9230136,8.26429545 C21.9312864,8.25538636 21.9392409,8.24711364 21.9468773,8.23756818 C21.9777409,8.20034091 22.00415,8.15993182 22.0238773,8.11570455 C22.0248318,8.11411364 22.0261045,8.11284091 22.0267409,8.11093182 C22.03215,8.09884091 22.0343773,8.08643182 22.0388318,8.07434091 C22.0458318,8.05429545 22.0534682,8.03456818 22.0585591,8.01388636 C22.0626955,7.99638636 22.0642864,7.97888636 22.0665136,7.96170455 C22.0690591,7.94325 22.0722409,7.92511364 22.0728773,7.90665909 C22.0735136,7.88725 22.0716045,7.86847727 22.0703318,7.84938636 C22.0693773,7.83252273 22.0690591,7.81565909 22.0661955,7.79847727 C22.0626955,7.77684091 22.05665,7.75647727 22.0506045,7.73547727 C22.0471045,7.72338636 22.0458318,7.71097727 22.0413773,7.69888636 C22.0407409,7.69665909 22.03915,7.69475 22.0385136,7.69252273 C22.0305591,7.67120455 22.0194227,7.65115909 22.0092409,7.63111364 C22.0025591,7.61838636 21.9974682,7.60502273 21.99015,7.59325 C21.9799682,7.57702273 21.9669227,7.56206818 21.95515,7.54679545 C21.9449682,7.53343182 21.9357409,7.51911364 21.9246045,7.50702273 C21.9137864,7.49556818 21.9007409,7.48602273 21.8889682,7.47552273 C21.8740136,7.46184091 21.8596955,7.44720455 21.84315,7.43543182 C21.83265,7.42811364 21.8205591,7.42238636 21.8094227,7.41570455 C21.7893773,7.40297727 21.7690136,7.39025 21.7470591,7.38038636 C21.74515,7.37943182 21.7435591,7.37815909 21.74165,7.37720455 C20.7215591,6.92793182 20.0622864,5.91929545 20.0622864,4.80693182 C20.0622864,3.69456818 20.7215591,2.68561364 21.74165,2.23665909 C21.7441955,2.23538636 21.7464227,2.23379545 21.74865,2.23252273 C21.7671045,2.22393182 21.7842864,2.21311364 21.8017864,2.20261364 C21.8157864,2.19434091 21.8307409,2.18702273 21.8437864,2.17747727 C21.8587409,2.16697727 21.8717864,2.15361364 21.8854682,2.14120455 C21.8985136,2.12975 21.9128318,2.11893182 21.9246045,2.10652273 C21.9366955,2.09347727 21.9462409,2.07820455 21.9570591,2.06420455 C21.9681955,2.04956818 21.9802864,2.03588636 21.99015,2.02061364 C21.9981045,2.00756818 22.00415,1.99261364 22.01115,1.97861364 C22.0206955,1.95984091 22.0308773,1.94138636 22.0381955,1.92165909 C22.03915,1.91911364 22.0407409,1.91688636 22.0416955,1.91465909 C22.04615,1.90161364 22.0477409,1.88856818 22.0512409,1.87552273 C22.0569682,1.85547727 22.0626955,1.83606818 22.0661955,1.81570455 C22.0690591,1.79756818 22.0693773,1.78006818 22.07065,1.76256818 C22.0716045,1.74411364 22.0735136,1.72597727 22.0728773,1.70752273 C22.0722409,1.68811364 22.0690591,1.66965909 22.0665136,1.65088636 C22.0639682,1.63370455 22.0623773,1.61715909 22.0585591,1.59997727 C22.0534682,1.57865909 22.0458318,1.55861364 22.0385136,1.53825 C22.0340591,1.52615909 22.0318318,1.51438636 22.0267409,1.50261364 C22.0257864,1.50038636 22.0245136,1.49879545 22.0232409,1.49656818 C22.0140136,1.47588636 22.0016045,1.45679545 21.9898318,1.43738636 C21.9825136,1.42529545 21.9764682,1.41225 21.9681955,1.40079545 C21.9570591,1.38584091 21.9436955,1.37247727 21.9312864,1.35815909 C21.9195136,1.34543182 21.9090136,1.33111364 21.8962864,1.31934091 C21.8854682,1.30915909 21.8727409,1.30120455 21.86065,1.29197727 C21.8441045,1.27861364 21.8281955,1.26493182 21.8100591,1.25379545 C21.7995591,1.24711364 21.78715,1.24234091 21.7760136,1.23661364 C21.7543773,1.22515909 21.7333773,1.21402273 21.7107864,1.20543182 C21.7085591,1.20479545 21.7069682,1.20352273 21.7047409,1.20256818 C21.2841045,1.05238636 20.8501045,0.976022727 20.4148318,0.976022727 C18.3027409,0.976022727 16.5839227,2.69452273 16.5839227,4.80693182 C16.5839227,6.91934091 18.3027409,8.63784091 20.4148318,8.63784091" id="Fill-6"></path>
                </g>
            </g>
        </g>
    </g>
</svg>