<?xml version="1.0" encoding="UTF-8"?>
<svg width="54px" height="60px" viewBox="0 0 54 60" version="1.1" xmlns="http://www.w3.org/2000/svg" xmlns:xlink="http://www.w3.org/1999/xlink">
    <!-- Generator: Sketch 44.1 (41455) - http://www.bohemiancoding.com/sketch -->
    <title>Page 1</title>
    <desc>Created with Sketch.</desc>
    <defs>
        <polygon id="path-1" points="26.5750047 0 53.15 0 53.15 60 26.5750047 60 9.46375653e-06 60 9.46375653e-06 0 26.5750047 0"></polygon>
    </defs>
    <g id="Home" stroke="none" stroke-width="1" fill="none" fill-rule="evenodd">
        <g id="Desktop-HD-Copy" transform="translate(-269.000000, -734.000000)">
            <g id="Page-1" transform="translate(269.000000, 734.000000)">
                <path d="M26.7371,29.9917 C21.2411,29.9917 16.7701,25.5207 16.7701,20.0247 C16.7701,14.5287 21.2411,10.0577 26.7371,10.0577 C32.2331,10.0577 36.7041,14.5287 36.7041,20.0247 C36.7041,25.5207 32.2331,29.9917 26.7371,29.9917 M39.3041,20.0247 C39.3041,13.0957 33.6671,7.4577 26.7371,7.4577 C19.8081,7.4577 14.1701,13.0957 14.1701,20.0247 C14.1701,26.9537 19.8081,32.5917 26.7371,32.5917 C33.6671,32.5917 39.3041,26.9537 39.3041,20.0247" id="Fill-1" fill="#0E1031"></path>
                <g id="Group-5">
                    <mask id="mask-2" fill="white">
                        <use xlink:href="#path-1"></use>
                    </mask>
                    <g id="Clip-4"></g>
                    <path d="M50.7473,56.79 C50.7983,56.871 50.8583,56.945 50.9263,57.014 C50.8613,56.95 50.8003,56.875 50.7473,56.79 M49.1093,52.433 C47.3513,51.139 45.5923,49.851 45.5923,49.851 C45.0203,49.432 44.2173,49.549 43.7893,50.113 L40.0603,55.027 C39.4953,47.809 37.3823,42.59 35.4333,39.196 C37.5503,38.108 39.1533,36.027 39.9393,33.228 C41.1113,32.9 42.1563,32.431 43.0593,31.838 C45.9903,36.24 49.4103,43.344 50.3533,53.35 C49.9553,53.056 49.5323,52.744 49.1093,52.433 M31.8263,37.449 C30.4503,37.449 28.9213,36.97 27.4043,36.062 C27.1993,35.939 26.9683,35.879 26.7373,35.879 C26.5063,35.879 26.2753,35.939 26.0703,36.062 C24.5323,36.982 23.0443,37.449 21.6483,37.449 C18.7873,37.449 16.6303,35.367 15.8783,31.88 C15.7703,31.381 15.3803,30.991 14.8813,30.883 C12.3473,30.337 10.5213,29.048 9.7423,27.254 C8.9373,25.4 9.2773,23.07 10.6993,20.692 C10.9443,20.281 10.9443,19.768 10.6993,19.357 C9.2773,16.979 8.9373,14.649 9.7423,12.795 C10.5213,11.001 12.3473,9.712 14.8813,9.165 C15.3803,9.058 15.7703,8.668 15.8783,8.169 C16.6303,4.682 18.7873,2.6 21.6483,2.6 C23.0243,2.6 24.5533,3.08 26.0703,3.986 C26.4803,4.232 26.9933,4.232 27.4043,3.986 C28.9423,3.066 30.4303,2.6 31.8263,2.6 C34.6873,2.6 36.8443,4.682 37.5963,8.169 C37.7043,8.668 38.0943,9.058 38.5933,9.165 C41.1273,9.712 42.9533,11.001 43.7313,12.795 C44.5373,14.649 44.1973,16.979 42.7753,19.357 C42.5303,19.768 42.5303,20.281 42.7753,20.692 C44.1973,23.07 44.5373,25.4 43.7313,27.254 C42.9533,29.048 41.1273,30.337 38.5933,30.883 C38.0943,30.991 37.7043,31.381 37.5963,31.88 C36.8443,35.367 34.6873,37.449 31.8263,37.449 M13.0893,54.377 L9.3613,49.463 C8.9323,48.898 8.1293,48.781 7.5573,49.2 C7.5573,49.2 5.7983,50.488 4.0403,51.782 C3.6173,52.094 3.1943,52.405 2.7953,52.699 C3.7193,42.907 7.0153,35.896 9.9013,31.476 C10.9133,32.242 12.1343,32.837 13.5353,33.228 C14.2543,35.791 15.6593,37.752 17.5173,38.899 C15.6253,42.298 13.6353,47.403 13.0893,54.377 M2.2243,56.363 C2.2913,56.296 2.3513,56.221 2.4023,56.14 C2.3493,56.225 2.2883,56.3 2.2243,56.363 M53.1393,55.912 C52.5683,43.644 48.4313,35.12 45.0163,30.09 C45.4623,29.541 45.8343,28.94 46.1163,28.29 C47.1833,25.835 46.9193,22.924 45.3833,20.024 C46.9193,17.125 47.1833,14.214 46.1163,11.759 C45.0853,9.384 42.9083,7.651 39.9393,6.821 C38.7513,2.591 35.7013,0 31.8263,0 C30.1673,0 28.4583,0.463 26.7373,1.378 C25.0153,0.463 23.3073,0 21.6483,0 C17.7733,0 14.7223,2.591 13.5353,6.821 C10.5663,7.651 8.3893,9.384 7.3583,11.759 C6.2913,14.214 6.5553,17.125 8.0913,20.024 C6.5553,22.924 6.2913,25.835 7.3583,28.29 C7.5513,28.735 7.7843,29.157 8.0563,29.555 C4.6563,34.6 0.5773,43.086 0.0103,55.262 C-0.0067,55.392 -0.0037,55.534 0.0273,55.691 C0.1513,56.339 0.7373,56.787 1.3983,56.741 C1.7033,56.719 1.9783,56.593 2.1883,56.397 C2.6063,56.063 5.6623,53.813 8.0623,52.054 L13.2083,58.835 C13.4583,59.166 13.8453,59.35 14.2443,59.35 C14.3823,59.35 14.5213,59.327 14.6573,59.282 C15.1853,59.104 15.5423,58.61 15.5443,58.053 C15.5633,49.488 17.8573,43.531 19.9523,39.874 C20.4963,39.989 21.0623,40.049 21.6483,40.049 C23.3073,40.049 25.0153,39.586 26.7373,38.671 C28.4583,39.586 30.1673,40.049 31.8263,40.049 C32.1843,40.049 32.5363,40.026 32.8793,39.983 C35.0523,43.581 37.5843,49.701 37.6053,58.703 C37.6073,59.261 37.9643,59.755 38.4933,59.933 C38.6283,59.978 38.7683,60 38.9053,60 C39.3053,60 39.6913,59.815 39.9413,59.485 L45.0873,52.704 C47.4873,54.464 50.5433,56.714 50.9613,57.047 C51.1713,57.243 51.4463,57.369 51.7513,57.392 C52.4113,57.44 52.9973,56.989 53.1223,56.342 C53.1533,56.185 53.1573,56.042 53.1393,55.912" id="Fill-3" fill="#0E1031" mask="url(#mask-2)"></path>
                </g>
            </g>
        </g>
    </g>
</svg>