<?xml version="1.0" encoding="UTF-8"?>
<svg width="154px" height="41px" viewBox="0 0 154 41" version="1.1" xmlns="http://www.w3.org/2000/svg" xmlns:xlink="http://www.w3.org/1999/xlink">
    <!-- Generator: Sketch 43.2 (39069) - http://www.bohemiancoding.com/sketch -->
    <title>Group 4</title>
    <desc>Created with Sketch.</desc>
    <defs></defs>
    <g id="Single-host" stroke="none" stroke-width="1" fill="none" fill-rule="evenodd">
        <g id="Desktop-HD" transform="translate(-150.000000, -20.000000)" fill="#FEFEFE">
            <g id="Group-4" transform="translate(150.000000, 20.000000)">
                <g id="Group">
                    <path d="M22.7111836,36.2701621 L19.2819036,36.2701621 C19.2819036,36.2701621 16.4704474,13.7709841 7.45454545,0 C14.703315,0.690593459 24.6661494,0.151740239 26.7677368,0.0250057755 L26.7680123,0 C26.7680123,0 26.8355479,0.0046911106 26.9639448,0.0129789921 C27.0967981,0.0046911106 27.1667498,0 27.1667498,0 L27.1667498,0.0258240102 C29.2268605,0.154037988 38.8473595,0.689117463 46.0806363,0 C37.0647343,13.7709841 34.2532782,36.2701621 34.2532782,36.2701621 L30.5580735,36.2701621 L30.5580735,25.5023923 L22.7111836,25.5023923 L22.7111836,36.2701621 Z" id="Combined-Shape"></path>
                    <path d="M16.0394199,23.8722457 C16.0394199,23.8722457 11.57993,8.35551601 8.28368483,3.70055049 C5.76317319,2.53689806 3.72727273,2.82776669 3.72727273,2.82776669 C3.72727273,2.82776669 12.7342828,12.7647998 16.0394199,23.8722457" id="Fill-3"></path>
                    <path d="M12.1504916,17.9093403 C12.1504916,17.9093403 6.65669027,8.30854065 3.87777862,6.11021423 C1.93880039,5.52829907 0,5.59305514 0,5.59305514 C0,5.59305514 9.88820209,13.9332462 12.1504916,17.9093403" id="Fill-5"></path>
                    <path d="M37.2727273,23.8722457 C37.2727273,23.8722457 41.7320393,8.35551601 45.0281067,3.70055049 C47.5487961,2.53689806 49.5845188,2.82776669 49.5845188,2.82776669 C49.5845188,2.82776669 40.5776866,12.7647998 37.2727273,23.8722457" id="Fill-9"></path>
                    <path d="M41,17.9093403 C41,17.9093403 46.4938013,8.30854065 49.2728908,6.11021423 C51.2116912,5.52829907 53.1504916,5.59305514 53.1504916,5.59305514 C53.1504916,5.59305514 43.2621116,13.9332462 41,17.9093403" id="Fill-11"></path>
                </g>
                <g id="Group-3" transform="translate(41.931818, 18.636364)">
                    <path d="M0.149090909,1.11072727 L0.149090909,17.7045455 L2.72090909,17.7045455 L2.72090909,1.11072727 L0.149090909,1.11072727 Z M7.90927273,0.864727273 C7.05945455,0.864727273 6.41090909,1.51327273 6.41090909,2.40781818 C6.41090909,3.28 7.05945455,3.92854545 7.90927273,3.92854545 C8.75909091,3.92854545 9.40763636,3.28 9.40763636,2.40781818 C9.40763636,1.51327273 8.75909091,0.864727273 7.90927273,0.864727273 Z M6.63454545,5.80709091 L6.63454545,17.7045455 L9.184,17.7045455 L9.184,5.80709091 L6.63454545,5.80709091 Z M19.9409091,5.71763636 C17.9281818,5.71763636 16.4074545,6.43327273 15.5576364,8.08818182 L15.5576364,5.80709091 L12.9858182,5.80709091 L12.9858182,17.7045455 L15.5576364,17.7045455 L15.5576364,11.3756364 C15.7365455,9.51945455 16.9665455,8.15527273 18.9345455,8.13290909 C20.7236364,8.13290909 21.7970909,9.22872727 21.7970909,11.0178182 L21.7970909,17.7045455 L24.3689091,17.7045455 L24.3689091,10.3021818 C24.3689091,7.462 22.714,5.71763636 19.9409091,5.71763636 Z M35.998,5.80709091 L38.5474545,5.80709091 L38.5474545,16.5416364 C38.5474545,19.9632727 36.1098182,22.1101818 32.3750909,22.1101818 C30.5189091,22.1101818 28.8863636,21.5287273 27.4327273,20.5447273 L28.5285455,18.6885455 C29.6467273,19.516 30.8096364,19.9856364 32.2632727,19.9856364 C34.522,19.9856364 35.998,18.6661818 35.998,16.6087273 L35.998,15.1103636 C35.1929091,16.4074545 33.8510909,17.1230909 32.062,17.1230909 C28.8416364,17.1230909 26.6947273,14.7972727 26.6947273,11.3756364 C26.6947273,8.02109091 28.8192727,5.74 31.9725455,5.71763636 C33.8063636,5.69527273 35.1705455,6.43327273 35.998,7.73036364 L35.998,5.80709091 Z M32.5763636,15.1103636 C34.5890909,15.1103636 35.998,13.5896364 35.998,11.4427273 C35.998,9.29581818 34.5890909,7.79745455 32.5763636,7.79745455 C30.5412727,7.79745455 29.1323636,9.31818182 29.11,11.4427273 C29.1323636,13.5896364 30.5189091,15.1103636 32.5763636,15.1103636 Z M47.2245455,5.71763636 C50.8921818,5.71763636 53.4192727,8.15527273 53.4192727,11.7334545 C53.4192727,15.334 50.8921818,17.794 47.2245455,17.794 C43.5345455,17.794 41.0074545,15.334 41.0074545,11.7334545 C41.0074545,8.15527273 43.5345455,5.71763636 47.2245455,5.71763636 Z M47.2245455,7.90927273 C45.0776364,7.90927273 43.5792727,9.49709091 43.5792727,11.7781818 C43.5792727,14.0816364 45.0776364,15.6470909 47.2245455,15.6470909 C49.3490909,15.6470909 50.8474545,14.0816364 50.8474545,11.7781818 C50.8474545,9.49709091 49.3490909,7.90927273 47.2245455,7.90927273 Z" id="lingo"></path>
                    <path d="M61.5298182,3.23527273 C60.6576364,3.23527273 59.9196364,3.72727273 59.9196364,4.84545455 L59.9196364,6.25436364 L63.0281818,6.25436364 L63.0281818,8.17763636 L59.9196364,8.17763636 L59.9196364,17.7045455 L57.3701818,17.7045455 L57.3701818,8.17763636 L55.8047273,8.17763636 L55.8047273,6.25436364 L57.3701818,6.25436364 L57.3701818,5.09145455 C57.3701818,2.31836364 59.4052727,0.998909091 61.4627273,0.998909091 C62.4243636,0.998909091 63.386,1.26727273 64.1463636,1.82636364 L63.1623636,3.79436364 C62.6703636,3.43654545 62.0665455,3.23527273 61.5298182,3.23527273 Z M69.6478182,5.71763636 C73.3154545,5.71763636 75.8425455,8.15527273 75.8425455,11.7334545 C75.8425455,15.334 73.3154545,17.794 69.6478182,17.794 C65.9578182,17.794 63.4307273,15.334 63.4307273,11.7334545 C63.4307273,8.15527273 65.9578182,5.71763636 69.6478182,5.71763636 Z M69.6478182,7.90927273 C67.5009091,7.90927273 66.0025455,9.49709091 66.0025455,11.7781818 C66.0025455,14.0816364 67.5009091,15.6470909 69.6478182,15.6470909 C71.7723636,15.6470909 73.2707273,14.0816364 73.2707273,11.7781818 C73.2707273,9.49709091 71.7723636,7.90927273 69.6478182,7.90927273 Z M81.098,8.17763636 L81.098,5.80709091 L78.5261818,5.80709091 L78.5261818,17.7045455 L81.098,17.7045455 L81.098,11.4874545 C81.2992727,9.45236364 82.82,8.04345455 85.2129091,8.17763636 L85.2129091,5.71763636 C83.3343636,5.71763636 81.9030909,6.56745455 81.098,8.17763636 Z" id="for" opacity="0.800000012"></path>
                    <path d="M99.1529091,17.7045455 L96.6258182,17.7045455 L96.6258182,16.2509091 C95.776,17.302 94.4118182,17.8163636 92.6898182,17.8163636 C90.118,17.8163636 88.5078182,16.2285455 88.5078182,14.1263636 C88.5078182,11.9570909 90.1403636,10.5705455 93.0029091,10.5481818 L96.6034545,10.5481818 L96.6034545,10.1903636 C96.6034545,8.692 95.6418182,7.79745455 93.7632727,7.79745455 C92.6227273,7.79745455 91.4374545,8.2 90.2521818,9.00509091 L89.2010909,7.216 C90.856,6.232 92.0636364,5.71763636 94.3223636,5.71763636 C97.3861818,5.71763636 99.1081818,7.28309091 99.1305455,9.89963636 L99.1529091,17.7045455 Z M93.2265455,15.7812727 C95.0603636,15.7812727 96.4692727,14.8196364 96.6034545,13.5225455 L96.6034545,12.4267273 L93.3830909,12.4267273 C91.7058182,12.4267273 90.9230909,12.874 90.9230909,14.0145455 C90.9230909,15.088 91.7952727,15.7812727 93.2265455,15.7812727 Z M102.708727,1.11072727 L102.708727,17.7045455 L105.280545,17.7045455 L105.280545,1.11072727 L102.708727,1.11072727 Z M109.306,1.11072727 L109.306,17.7045455 L111.877818,17.7045455 L111.877818,1.11072727 L109.306,1.11072727 Z" id="all"></path>
                </g>
            </g>
        </g>
    </g>
</svg>