<?xml version="1.0" encoding="UTF-8"?>
<svg width="213px" height="37px" viewBox="0 0 213 37" version="1.1" xmlns="http://www.w3.org/2000/svg" xmlns:xlink="http://www.w3.org/1999/xlink">
    <!-- Generator: Sketch 3.7.2 (28276) - http://www.bohemiancoding.com/sketch -->
    <title>Diversitea</title>
    <desc>Created with Sketch.</desc>
    <defs></defs>
    <g id="Page-1" stroke="none" stroke-width="1" fill="none" fill-rule="evenodd">
        <g id="logotype2" fill="#ffffff">
            <g id="Page-1">
                <g id="logotype">
                    <g id="Diversitea">
                        <path d="M0.962962963,32.7283951 L4.88888889,32.7283951 L4.88888889,3.9382716 L0.962962963,3.9382716 L0.962962963,0.666666667 L12.6753086,0.666666667 C18.3461189,0.666666667 22.5337313,2.07344272 25.2382716,4.88703704 C27.9428119,7.70063135 29.2950617,11.8773386 29.2950617,17.417284 C29.2950617,23.5243104 27.7574228,28.1481324 24.6820988,31.2888889 C21.6067747,34.4296453 17.2119627,36 11.4975309,36 L0.962962963,36 L0.962962963,32.7283951 Z M8.81481481,32.7283951 L11.9555556,32.7283951 C16.1868524,32.7283951 19.4475194,31.5288186 21.7376543,29.1296296 C24.0277892,26.7304407 25.1728395,22.9572274 25.1728395,17.8098765 C25.1728395,13.0114986 24.1259364,9.50001112 22.0320988,7.27530864 C19.9382611,5.05060616 16.579447,3.9382716 11.9555556,3.9382716 L8.81481481,3.9382716 L8.81481481,32.7283951 Z M34.3333333,32.7283951 L37.6049383,32.7283951 L37.6049383,13.7530864 L34.3333333,13.7530864 L34.3333333,10.4814815 L41.5308642,10.4814815 L41.5308642,32.7283951 L44.8024691,32.7283951 L44.8024691,36 L34.3333333,36 L34.3333333,32.7283951 Z M36.4925926,3.54567901 C36.4925926,2.62962505 36.7434131,1.9207844 37.2450617,1.4191358 C37.7467103,0.917487204 38.4337405,0.666666667 39.3061728,0.666666667 C40.1349836,0.666666667 40.8111085,0.917487204 41.3345679,1.4191358 C41.8580273,1.9207844 42.1197531,2.58600409 42.1197531,3.41481481 C42.1197531,4.28724716 41.8580273,4.97427733 41.3345679,5.47592593 C40.8111085,5.97757452 40.1131731,6.22839506 39.2407407,6.22839506 C38.41193,6.22839506 37.7467103,5.97757452 37.2450617,5.47592593 C36.7434131,4.97427733 36.4925926,4.33086812 36.4925926,3.54567901 L36.4925926,3.54567901 Z M60.3753086,36.3271605 L56.645679,36.3271605 L49.0555556,13.7530864 L46.1111111,13.7530864 L46.1111111,10.4814815 L55.9259259,10.4814815 L55.9259259,13.7530864 L53.0469136,13.7530864 L58.7395062,31.2888889 L58.8703704,31.2888889 L64.7592593,13.7530864 L61.8148148,13.7530864 L61.8148148,10.4814815 L71.6296296,10.4814815 L71.6296296,13.7530864 L68.3580247,13.7530864 L60.3753086,36.3271605 Z M92.5679012,31.0925926 L92.5679012,34.6259259 C90.3868204,35.9781961 87.834994,36.654321 84.9123457,36.654321 C81.4662379,36.654321 78.7726435,35.4983655 76.8314815,33.1864198 C74.8903195,30.874474 73.9197531,27.6465228 73.9197531,23.5024691 C73.9197531,19.2275506 74.9448457,15.8796417 76.9950617,13.458642 C79.0452777,11.0376422 81.6189146,9.82716049 84.7160494,9.82716049 C87.2461032,9.82716049 89.2962884,10.8304426 90.8666667,12.837037 C92.4370449,14.8436314 93.2222222,17.7008045 93.2222222,21.408642 L93.2222222,23.437037 L77.9765432,23.437037 C78.0637864,26.4905502 78.6635747,28.8678927 79.7759259,30.5691358 C80.8882772,32.2703789 82.6658314,33.1646086 85.108642,33.2518519 C87.8131822,33.2518519 90.2995771,32.532106 92.5679012,31.0925926 L92.5679012,31.0925926 Z M89.2962963,20.2962963 C89.2962963,17.8098641 88.8382762,15.9886889 87.9222222,14.832716 C87.0061683,13.6767432 85.7193499,13.0987654 84.0617284,13.0987654 C82.4477286,13.0987654 81.0954787,13.6985537 80.0049383,14.8981481 C78.9143978,16.0977426 78.2600834,17.8971073 78.0419753,20.2962963 L89.2962963,20.2962963 Z M97.1481481,32.7283951 L100.419753,32.7283951 L100.419753,13.7530864 L97.1481481,13.7530864 L97.1481481,10.4814815 L104.149383,10.4814815 L104.345679,14.145679 L104.476543,14.145679 C105.305354,12.7497873 106.221394,11.7246946 107.224691,11.0703704 C108.227989,10.4160461 109.427565,10.0888889 110.823457,10.0888889 C111.346916,10.0888889 111.804936,10.1325099 112.197531,10.2197531 L112.197531,14.3419753 C111.543207,14.2111105 110.867082,14.145679 110.169136,14.145679 C108.904109,14.145679 107.80268,14.4401205 106.864815,15.0290123 C105.92695,15.6179042 105.087247,16.5666601 104.345679,17.8753086 L104.345679,32.7283951 L108.271605,32.7283951 L108.271605,36 L97.1481481,36 L97.1481481,32.7283951 Z M122.928395,36.654321 C120.223855,36.654321 117.73746,36.1308694 115.469136,35.0839506 L115.469136,29.4567901 L118.871605,29.4567901 L118.871605,32.8592593 C120.180253,33.2518538 121.619745,33.4481481 123.190123,33.4481481 C125.153096,33.4481481 126.538062,33.1100857 127.345062,32.4339506 C128.152062,31.7578155 128.555556,30.8090596 128.555556,29.5876543 C128.555556,28.4534923 128.075725,27.5483573 127.116049,26.8722222 C126.156374,26.1960872 124.651451,25.4872465 122.601235,24.745679 C119.722208,23.6987602 117.759264,22.5755204 116.712346,21.3759259 C115.665427,20.1763315 115.141975,18.7695554 115.141975,17.1555556 C115.141975,15.0180963 115.992584,13.2623525 117.693827,11.8882716 C119.39507,10.5141907 121.576118,9.82716049 124.237037,9.82716049 C126.679848,9.82716049 128.991759,10.350612 131.17284,11.3975309 L131.17284,17.0246914 L127.77037,17.0246914 L127.77037,13.5567901 C126.767073,13.1641956 125.523876,12.9679012 124.040741,12.9679012 C122.383119,12.9679012 121.139922,13.3059637 120.311111,13.9820988 C119.4823,14.6582338 119.067901,15.5415583 119.067901,16.6320988 C119.067901,17.7226392 119.515016,18.5841532 120.409259,19.2166667 C121.303502,19.8491801 122.710278,20.5143998 124.62963,21.2123457 C127.377792,22.1720213 129.373451,23.2407349 130.616667,24.4185185 C131.859883,25.5963022 132.481481,27.1666569 132.481481,29.1296296 C132.481481,31.3979537 131.609062,33.2191289 129.864198,34.5932099 C128.119333,35.9672908 125.807422,36.654321 122.928395,36.654321 L122.928395,36.654321 Z M136.407407,32.7283951 L139.679012,32.7283951 L139.679012,13.7530864 L136.407407,13.7530864 L136.407407,10.4814815 L143.604938,10.4814815 L143.604938,32.7283951 L146.876543,32.7283951 L146.876543,36 L136.407407,36 L136.407407,32.7283951 Z M138.566667,3.54567901 C138.566667,2.62962505 138.817487,1.9207844 139.319136,1.4191358 C139.820784,0.917487204 140.507815,0.666666667 141.380247,0.666666667 C142.209058,0.666666667 142.885183,0.917487204 143.408642,1.4191358 C143.932101,1.9207844 144.193827,2.58600409 144.193827,3.41481481 C144.193827,4.28724716 143.932101,4.97427733 143.408642,5.47592593 C142.885183,5.97757452 142.187247,6.22839506 141.314815,6.22839506 C140.486004,6.22839506 139.820784,5.97757452 139.319136,5.47592593 C138.817487,4.97427733 138.566667,4.33086812 138.566667,3.54567901 L138.566667,3.54567901 Z M158.850617,36.654321 C156.974888,36.654321 155.491775,36.1635852 154.401235,35.1820988 C153.310694,34.2006124 152.765432,32.7502154 152.765432,30.8308642 L152.765432,13.7530864 L149.493827,13.7530864 L149.493827,10.4814815 L152.765432,10.4814815 L152.765432,4.59259259 L156.691358,3.87283951 L156.691358,10.4814815 L162.580247,10.4814815 L162.580247,13.7530864 L156.691358,13.7530864 L156.691358,30.1765432 C156.691358,31.4415701 156.942179,32.2921789 157.443827,32.7283951 C157.945476,33.1646112 158.610695,33.382716 159.439506,33.382716 C160.486425,33.382716 161.533328,33.1209903 162.580247,32.5975309 L162.580247,35.8037037 C161.402463,36.3707847 160.159266,36.654321 158.850617,36.654321 L158.850617,36.654321 Z M184.82716,31.0925926 L184.82716,34.6259259 C182.64608,35.9781961 180.094253,36.654321 177.171605,36.654321 C173.725497,36.654321 171.031903,35.4983655 169.090741,33.1864198 C167.149579,30.874474 166.179012,27.6465228 166.179012,23.5024691 C166.179012,19.2275506 167.204105,15.8796417 169.254321,13.458642 C171.304537,11.0376422 173.878174,9.82716049 176.975309,9.82716049 C179.505362,9.82716049 181.555548,10.8304426 183.125926,12.837037 C184.696304,14.8436314 185.481481,17.7008045 185.481481,21.408642 L185.481481,23.437037 L170.235802,23.437037 C170.323046,26.4905502 170.922834,28.8678927 172.035185,30.5691358 C173.147536,32.2703789 174.925091,33.1646086 177.367901,33.2518519 C180.072442,33.2518519 182.558836,32.532106 184.82716,31.0925926 L184.82716,31.0925926 Z M181.555556,20.2962963 C181.555556,17.8098641 181.097535,15.9886889 180.181481,14.832716 C179.265428,13.6767432 177.978609,13.0987654 176.320988,13.0987654 C174.706988,13.0987654 173.354738,13.6985537 172.264198,14.8981481 C171.173657,16.0977426 170.519343,17.8971073 170.301235,20.2962963 L181.555556,20.2962963 Z M191.37037,12.3790123 C194.380262,10.6777693 197.45554,9.82716049 200.596296,9.82716049 C203.300837,9.82716049 205.383738,10.4487592 206.845062,11.6919753 C208.306386,12.9351914 209.037037,14.90904 209.037037,17.6135802 L209.037037,32.7283951 L212.308642,32.7283951 L212.308642,36 L205.503704,36 L205.307407,33.0555556 L205.176543,32.9901235 C203.082706,35.432934 200.509069,36.654321 197.455556,36.654321 C195.187231,36.654321 193.387867,35.9891013 192.057407,34.658642 C190.726948,33.3281826 190.061728,31.6378703 190.061728,29.5876543 C190.061728,26.8394924 191.2504,24.7893072 193.627778,23.437037 C196.005156,22.0847669 199.462117,21.408642 203.998765,21.408642 L205.111111,21.408642 L205.111111,17.5481481 C205.111111,15.9341483 204.729428,14.789098 203.966049,14.112963 C203.202671,13.4368279 201.926758,13.0987654 200.138272,13.0987654 C198.000812,13.0987654 196.212353,13.4477331 194.77284,14.145679 L194.77284,17.6790123 L191.37037,17.6790123 L191.37037,12.3790123 Z M203.540741,24.2222222 C200.530849,24.2222222 198.218938,24.6039056 196.604938,25.367284 C194.990938,26.1306623 194.183951,27.4720069 194.183951,29.391358 C194.183951,30.7872498 194.576539,31.8014372 195.361728,32.4339506 C196.146918,33.0664641 197.1502,33.382716 198.371605,33.382716 C200.988902,33.382716 203.235382,32.3140025 205.111111,30.1765432 L205.111111,24.2222222 L203.540741,24.2222222 Z"></path>
                    </g>
                </g>
            </g>
        </g>
    </g>
</svg>
