<?xml version="1.0" encoding="UTF-8"?>
<svg width="201px" height="181px" viewBox="0 0 201 181" version="1.1" xmlns="http://www.w3.org/2000/svg" xmlns:xlink="http://www.w3.org/1999/xlink">
    <!-- Generator: Sketch 3.7.2 (28276) - http://www.bohemiancoding.com/sketch -->
    <title>Group</title>
    <desc>Created with Sketch.</desc>
    <defs></defs>
    <g id="Page-1" stroke="none" stroke-width="1" fill="none" fill-rule="evenodd">
        <g id="로고1" transform="translate(0.000000, 2.000000)">
            <g id="Group">
                <path d="M0.851851852,174.91358 L4.55555556,174.91358 L4.55555556,147.753086 L0.851851852,147.753086 L0.851851852,144.666667 L11.9012346,144.666667 C17.2510556,144.666667 21.2016333,145.993814 23.7530864,148.648148 C26.3045395,151.302482 27.5802469,155.242772 27.5802469,160.469136 C27.5802469,166.230481 26.1296441,170.592578 23.2283951,173.555556 C20.327146,176.518533 16.1810969,178 10.7901235,178 L0.851851852,178 L0.851851852,174.91358 Z M8.25925926,174.91358 L11.2222222,174.91358 C15.2140117,174.91358 18.2901127,173.781904 20.4506173,171.518519 C22.6111219,169.255133 23.691358,165.695498 23.691358,160.839506 C23.691358,156.312735 22.7037136,153.00001 20.7283951,150.901235 C18.7530765,148.802459 15.584384,147.753086 11.2222222,147.753086 L8.25925926,147.753086 L8.25925926,174.91358 Z M32.3333333,174.91358 L35.4197531,174.91358 L35.4197531,157.012346 L32.3333333,157.012346 L32.3333333,153.925926 L39.1234568,153.925926 L39.1234568,174.91358 L42.2098765,174.91358 L42.2098765,178 L32.3333333,178 L32.3333333,174.91358 Z M34.3703704,147.382716 C34.3703704,146.518514 34.6069935,145.849797 35.0802469,145.376543 C35.5535003,144.90329 36.201642,144.666667 37.0246914,144.666667 C37.8065883,144.666667 38.444442,144.90329 38.9382716,145.376543 C39.4321012,145.849797 39.6790123,146.477362 39.6790123,147.259259 C39.6790123,148.082309 39.4321012,148.73045 38.9382716,149.203704 C38.444442,149.676957 37.7860123,149.91358 36.962963,149.91358 C36.181066,149.91358 35.5535003,149.676957 35.0802469,149.203704 C34.6069935,148.73045 34.3703704,148.12346 34.3703704,147.382716 L34.3703704,147.382716 Z M56.9012346,178.308642 L53.382716,178.308642 L46.2222222,157.012346 L43.4444444,157.012346 L43.4444444,153.925926 L52.7037037,153.925926 L52.7037037,157.012346 L49.9876543,157.012346 L55.3580247,173.555556 L55.4814815,173.555556 L61.037037,157.012346 L58.2592593,157.012346 L58.2592593,153.925926 L67.5185185,153.925926 L67.5185185,157.012346 L64.4320988,157.012346 L56.9012346,178.308642 Z M87.2716049,173.37037 L87.2716049,176.703704 C85.2139815,177.97943 82.8065981,178.617284 80.0493827,178.617284 C76.7983377,178.617284 74.2572108,177.52676 72.4259259,175.345679 C70.594641,173.164598 69.6790123,170.119361 69.6790123,166.209877 C69.6790123,162.176935 70.6460809,159.01853 72.5802469,156.734568 C74.514413,154.450606 76.9423722,153.308642 79.8641975,153.308642 C82.2510407,153.308642 84.1851778,154.255135 85.6666667,156.148148 C87.1481556,158.041162 87.8888889,160.736608 87.8888889,164.234568 L87.8888889,166.148148 L73.5061728,166.148148 C73.5884778,169.028821 74.1543157,171.271597 75.2037037,172.876543 C76.2530917,174.48149 77.9300296,175.325102 80.2345679,175.407407 C82.786021,175.407407 85.1316765,174.728402 87.2716049,173.37037 L87.2716049,173.37037 Z M84.1851852,163.185185 C84.1851852,160.839494 83.7530907,159.121405 82.8888889,158.030864 C82.024687,156.940324 80.8107074,156.395062 79.2469136,156.395062 C77.7242722,156.395062 76.4485648,156.9609 75.4197531,158.092593 C74.3909414,159.224285 73.7736636,160.921799 73.5679012,163.185185 L84.1851852,163.185185 Z M91.5925926,174.91358 L94.6790123,174.91358 L94.6790123,157.012346 L91.5925926,157.012346 L91.5925926,153.925926 L98.1975309,153.925926 L98.382716,157.382716 L98.5061728,157.382716 C99.2880698,156.065837 100.152259,155.098769 101.098765,154.481481 C102.045272,153.864194 103.176948,153.555556 104.493827,153.555556 C104.987657,153.555556 105.419751,153.596707 105.790123,153.679012 L105.790123,157.567901 C105.172836,157.444444 104.534983,157.382716 103.876543,157.382716 C102.683122,157.382716 101.644037,157.660491 100.759259,158.216049 C99.8744812,158.771608 99.082308,159.66666 98.382716,160.901235 L98.382716,174.91358 L102.08642,174.91358 L102.08642,178 L91.5925926,178 L91.5925926,174.91358 Z M115.91358,178.617284 C113.362127,178.617284 111.016472,178.123462 108.876543,177.135802 L108.876543,171.82716 L112.08642,171.82716 L112.08642,175.037037 C113.320994,175.407409 114.679005,175.592593 116.160494,175.592593 C118.012355,175.592593 119.318926,175.273666 120.080247,174.635802 C120.841568,173.997939 121.222222,173.102886 121.222222,171.950617 C121.222222,170.880653 120.769552,170.026752 119.864198,169.388889 C118.958843,168.751026 117.539104,168.082308 115.604938,167.382716 C112.888875,166.395057 111.037042,165.335397 110.049383,164.203704 C109.061723,163.072011 108.567901,161.744864 108.567901,160.222222 C108.567901,158.205751 109.370362,156.549389 110.975309,155.253086 C112.580255,153.956784 114.637848,153.308642 117.148148,153.308642 C119.452686,153.308642 121.633735,153.802464 123.691358,154.790123 L123.691358,160.098765 L120.481481,160.098765 L120.481481,156.82716 C119.534975,156.456788 118.362147,156.271605 116.962963,156.271605 C115.399169,156.271605 114.226341,156.590532 113.444444,157.228395 C112.662548,157.866258 112.271605,158.699583 112.271605,159.728395 C112.271605,160.757207 112.693411,161.569956 113.537037,162.166667 C114.380663,162.763377 115.70781,163.390943 117.518519,164.049383 C120.111124,164.954737 121.993821,165.962957 123.166667,167.074074 C124.339512,168.185191 124.925926,169.666657 124.925926,171.518519 C124.925926,173.658447 124.102889,175.376537 122.45679,176.67284 C120.810691,177.969142 118.629643,178.617284 115.91358,178.617284 L115.91358,178.617284 Z M128.62963,174.91358 L131.716049,174.91358 L131.716049,157.012346 L128.62963,157.012346 L128.62963,153.925926 L135.419753,153.925926 L135.419753,174.91358 L138.506173,174.91358 L138.506173,178 L128.62963,178 L128.62963,174.91358 Z M130.666667,147.382716 C130.666667,146.518514 130.90329,145.849797 131.376543,145.376543 C131.849797,144.90329 132.497938,144.666667 133.320988,144.666667 C134.102885,144.666667 134.740738,144.90329 135.234568,145.376543 C135.728398,145.849797 135.975309,146.477362 135.975309,147.259259 C135.975309,148.082309 135.728398,148.73045 135.234568,149.203704 C134.740738,149.676957 134.082309,149.91358 133.259259,149.91358 C132.477362,149.91358 131.849797,149.676957 131.376543,149.203704 C130.90329,148.73045 130.666667,148.12346 130.666667,147.382716 L130.666667,147.382716 Z M149.802469,178.617284 C148.032913,178.617284 146.63375,178.154326 145.604938,177.228395 C144.576127,176.302465 144.061728,174.934165 144.061728,173.123457 L144.061728,157.012346 L140.975309,157.012346 L140.975309,153.925926 L144.061728,153.925926 L144.061728,148.37037 L147.765432,147.691358 L147.765432,153.925926 L153.320988,153.925926 L153.320988,157.012346 L147.765432,157.012346 L147.765432,172.506173 C147.765432,173.699594 148.002055,174.502056 148.475309,174.91358 C148.948562,175.325105 149.576128,175.530864 150.358025,175.530864 C151.345684,175.530864 152.333328,175.283953 153.320988,174.790123 L153.320988,177.814815 C152.209871,178.349797 151.037043,178.617284 149.802469,178.617284 L149.802469,178.617284 Z M174.308642,173.37037 L174.308642,176.703704 C172.251019,177.97943 169.843635,178.617284 167.08642,178.617284 C163.835375,178.617284 161.294248,177.52676 159.462963,175.345679 C157.631678,173.164598 156.716049,170.119361 156.716049,166.209877 C156.716049,162.176935 157.683118,159.01853 159.617284,156.734568 C161.55145,154.450606 163.979409,153.308642 166.901235,153.308642 C169.288078,153.308642 171.222215,154.255135 172.703704,156.148148 C174.185193,158.041162 174.925926,160.736608 174.925926,164.234568 L174.925926,166.148148 L160.54321,166.148148 C160.625515,169.028821 161.191353,171.271597 162.240741,172.876543 C163.290129,174.48149 164.967067,175.325102 167.271605,175.407407 C169.823058,175.407407 172.168714,174.728402 174.308642,173.37037 L174.308642,173.37037 Z M171.222222,163.185185 C171.222222,160.839494 170.790128,159.121405 169.925926,158.030864 C169.061724,156.940324 167.847744,156.395062 166.283951,156.395062 C164.761309,156.395062 163.485602,156.9609 162.45679,158.092593 C161.427978,159.224285 160.810701,160.921799 160.604938,163.185185 L171.222222,163.185185 Z M180.481481,155.716049 C183.321002,154.111103 186.222207,153.308642 189.185185,153.308642 C191.736638,153.308642 193.701639,153.895056 195.080247,155.067901 C196.458855,156.240747 197.148148,158.102868 197.148148,160.654321 L197.148148,174.91358 L200.234568,174.91358 L200.234568,178 L193.814815,178 L193.62963,175.222222 L193.506173,175.160494 C191.530854,177.465032 189.102895,178.617284 186.222222,178.617284 C184.082294,178.617284 182.38478,177.989718 181.12963,176.734568 C179.874479,175.479418 179.246914,173.884783 179.246914,171.950617 C179.246914,169.358012 180.368302,167.423875 182.611111,166.148148 C184.853921,164.872422 188.115205,164.234568 192.395062,164.234568 L193.444444,164.234568 L193.444444,160.592593 C193.444444,159.069951 193.084366,157.989715 192.364198,157.351852 C191.644029,156.713989 190.440338,156.395062 188.753086,156.395062 C186.736615,156.395062 185.04939,156.724277 183.691358,157.382716 L183.691358,160.716049 L180.481481,160.716049 L180.481481,155.716049 Z M191.962963,166.888889 C189.123443,166.888889 186.942394,167.248968 185.419753,167.969136 C183.897112,168.689304 183.135802,169.954723 183.135802,171.765432 C183.135802,173.082311 183.506169,174.039092 184.246914,174.635802 C184.987658,175.232513 185.934151,175.530864 187.08642,175.530864 C189.555568,175.530864 191.674888,174.522644 193.444444,172.506173 L193.444444,166.888889 L191.962963,166.888889 Z" id="Diversitea" fill="#FFFFFF"></path>
                <path d="M41.5,0.3 L41.5,37.8 C41.5,70.7 68.1,97.3 101,97.3 C133.9,97.3 160.5,70.7 160.5,37.8 L160.5,0.3 L41.5,0.3 L41.5,0.3 Z" id="Shape" stroke="#FFFFFF" stroke-width="4"></path>
                <path d="M41.5,37.8 C41.5,37.8 68,18.3 101,48.8 C101,48.8 137,85.2 160.5,43.8" id="Shape" stroke="#FFFFFF" stroke-width="4"></path>
                <path d="M64.5,118.3 L137,118.3" id="Shape" stroke="#FFFFFF" stroke-width="4"></path>
            </g>
        </g>
    </g>
</svg>