<?xml version="1.0" encoding="UTF-8"?>
<svg width="58px" height="48px" viewBox="0 0 58 48" version="1.1" xmlns="http://www.w3.org/2000/svg" xmlns:xlink="http://www.w3.org/1999/xlink">
    <!-- Generator: Sketch 44.1 (41455) - http://www.bohemiancoding.com/sketch -->
    <title>Group 23</title>
    <desc>Created with Sketch.</desc>
    <defs></defs>
    <g id="Home" stroke="none" stroke-width="1" fill="none" fill-rule="evenodd">
        <g id="Desktop-HD-Copy" transform="translate(-697.000000, -745.000000)" fill="#0E1031">
            <g id="Group-23" transform="translate(697.000000, 745.000000)">
                <path d="M3.22213016,6.78158095 L3.22213016,6.21446984 C3.22213016,4.56469206 4.56441587,3.22240635 6.21419365,3.22240635 L40.7278762,3.22240635 C42.377654,3.22240635 43.7199397,4.56469206 43.7199397,6.21446984 L43.7199397,6.78158095 L3.22213016,6.78158095 Z M40.7278762,0.000184126984 L6.21419365,0.000184126984 C2.78759048,0.000184126984 -9.20634921e-05,2.78786667 -9.20634921e-05,6.21446984 L-9.20634921e-05,24.0002159 C-9.20634921e-05,27.426819 2.78759048,30.2145016 6.21419365,30.2145016 L7.68260635,30.2145016 L7.68260635,26.9922794 L6.21419365,26.9922794 C4.56441587,26.9922794 3.22213016,25.6499937 3.22213016,24.0002159 L3.22213016,10.0038032 L43.7199397,10.0038032 L43.7199397,13.6080889 L46.9421619,13.6080889 L46.9421619,6.21446984 C46.9421619,2.78786667 44.1544794,0.000184126984 40.7278762,0.000184126984 L40.7278762,0.000184126984 Z" id="Fill-1"></path>
                <path d="M17.1494952,20.0830984 C15.4997175,20.0830984 14.1574317,21.4253841 14.1574317,23.0751619 L14.1574317,40.8609079 C14.1574317,42.5106857 15.4997175,43.8529714 17.1494952,43.8529714 L51.6631778,43.8529714 C53.3129556,43.8529714 54.6552413,42.5106857 54.6552413,40.8609079 L54.6552413,23.0751619 C54.6552413,21.4253841 53.3129556,20.0830984 51.6631778,20.0830984 L17.1494952,20.0830984 Z M51.6631778,47.0751937 L17.1494952,47.0751937 C13.7228921,47.0751937 10.9352095,44.2884317 10.9352095,40.8609079 L10.9352095,23.0751619 C10.9352095,19.6485587 13.7228921,16.8608762 17.1494952,16.8608762 L51.6631778,16.8608762 C55.089781,16.8608762 57.8774635,19.6485587 57.8774635,23.0751619 L57.8774635,40.8609079 C57.8774635,44.2884317 55.089781,47.0751937 51.6631778,47.0751937 L51.6631778,47.0751937 Z" id="Fill-4"></path>
                <path d="M32.5494159,40.1064476 L19.5436063,40.1064476 C18.654273,40.1064476 17.9324952,39.3846698 17.9324952,38.4953365 C17.9324952,37.6060032 18.654273,36.8842254 19.5436063,36.8842254 L32.5494159,36.8842254 C33.4387492,36.8842254 34.160527,37.6060032 34.160527,38.4953365 C34.160527,39.3846698 33.4387492,40.1064476 32.5494159,40.1064476" id="Fill-6"></path>
                <path d="M43.1852349,33.8104095 L19.5433302,33.8104095 C18.6539968,33.8104095 17.932219,33.0886317 17.932219,32.1992984 C17.932219,31.3099651 18.6539968,30.5881873 19.5433302,30.5881873 L43.1852349,30.5881873 C44.0745683,30.5881873 44.796346,31.3099651 44.796346,32.1992984 C44.796346,33.0886317 44.0745683,33.8104095 43.1852349,33.8104095" id="Fill-8"></path>
            </g>
        </g>
    </g>
</svg>