<?xml version="1.0" encoding="UTF-8"?>
<svg width="24px" height="24px" viewBox="0 0 24 24" version="1.1" xmlns="http://www.w3.org/2000/svg" xmlns:xlink="http://www.w3.org/1999/xlink">
    <!-- Generator: Sketch 43.2 (39069) - http://www.bohemiancoding.com/sketch -->
    <title>Rectangle 6</title>
    <desc>Created with Sketch.</desc>
    <defs>
        <filter x="-1.2%" y="-1.3%" width="102.5%" height="102.6%" filterUnits="objectBoundingBox" id="filter-1">
            <feOffset dx="0" dy="0" in="SourceAlpha" result="shadowOffsetOuter1"></feOffset>
            <feGaussianBlur stdDeviation="1.5" in="shadowOffsetOuter1" result="shadowBlurOuter1"></feGaussianBlur>
            <feColorMatrix values="0 0 0 0 0   0 0 0 0 0   0 0 0 0 0  0 0 0 0.5 0" type="matrix" in="shadowBlurOuter1" result="shadowMatrixOuter1"></feColorMatrix>
            <feMerge>
                <feMergeNode in="shadowMatrixOuter1"></feMergeNode>
                <feMergeNode in="SourceGraphic"></feMergeNode>
            </feMerge>
        </filter>
    </defs>
    <g id="Home" stroke="none" stroke-width="1" fill="none" fill-rule="evenodd">
        <g id="Desktop-HD" transform="translate(-234.000000, -1020.000000)">
            <g id="Group-7" filter="url(#filter-1)" transform="translate(150.000000, 712.000000)" fill="#FFFFFF">
                <rect id="Rectangle-4" x="0" y="166.829268" width="360" height="184.149994" rx="2"></rect>
            </g>
            <g id="Group-9" transform="translate(234.000000, 1020.000000)">
                <rect id="Rectangle-6" fill="#D8D8D8" opacity="0" x="0" y="0" width="24" height="24"></rect>
                <path d="M20.882006,8.2823114 C20.407915,7.32999321 19.7336878,6.62203867 18.8634605,6.17562958 C16.783506,5.10876594 14.380915,5.94812958 14.2797332,5.98440231 C14.0700514,6.0598114 13.9249605,6.25262958 13.9115969,6.47503867 C13.8982332,6.69808412 14.0191423,6.90712958 14.2186423,7.00640231 C14.8238241,7.30962958 16.123915,8.15917503 16.2785514,8.85344776 C16.2858696,8.88717503 16.302415,8.93299321 16.3157787,8.96512958 C16.3218241,8.97849321 16.4557787,9.30112958 16.2381423,9.69662958 C16.004915,10.1198114 15.2158241,10.8942659 12.5481878,11.3225387 C10.5086423,11.6493114 8.95432413,11.5503569 7.9609605,11.3934932 C7.71914231,11.7247205 7.46682413,12.0849023 7.26350595,12.4018114 C7.87568777,12.530675 8.76405141,12.6560387 9.9069605,12.6560387 C10.7202332,12.6560387 11.6623696,12.5924023 12.7247787,12.4218569 C15.150915,12.0324023 16.6695969,11.2805387 17.238506,10.1869478 C17.6330514,9.42872049 17.4383241,8.77453867 17.3527332,8.55785685 C17.1713696,7.85212958 16.5397787,7.2288114 15.9377787,6.77444776 C16.6457332,6.70826594 17.544915,6.75090231 18.355006,7.16644776 C19.2427332,7.62176594 19.8727332,8.46462958 20.2316423,9.66735685 C18.2025969,13.5587205 14.099006,18.0240841 5.82627868,20.9650387 L5.86827868,19.0782205 C5.87241504,18.8952659 5.78682413,18.7329932 5.65318777,18.6283114 C5.5459605,18.5096296 5.39259686,18.4345387 5.23000595,18.4396296 L3.34414231,18.4829023 C5.88005141,11.3565841 9.95055141,6.28572049 15.1486878,3.79022049 C18.3798241,2.23908412 21.1683696,2.10576594 22.1906878,2.11753867 C22.1992787,3.04217503 22.0812332,5.41549321 20.882006,8.2823114 M23.2839605,1.5938114 C23.2686878,1.43949321 23.192006,1.30585685 23.0809605,1.21517503 C22.9905969,1.11112958 22.863006,1.03953867 22.7153696,1.02522049 C22.5680514,1.01058412 19.058506,0.697493214 14.7286878,2.75708412 C10.7625514,4.64294776 5.33977868,8.9718114 2.02877868,18.8812659 C1.97118777,19.0530841 2.00109686,19.2417659 2.1089605,19.3878114 C2.2139605,19.530675 2.38036959,19.6143569 2.5569605,19.6143569 C2.56109686,19.6143569 2.56523322,19.6143569 2.56936959,19.6140387 L4.74350595,19.5647205 L4.69514231,21.7394932 C4.69100595,21.9205387 4.77532413,22.0923569 4.92136959,22.2002205 C5.01841504,22.2718114 5.13423322,22.3090387 5.25164231,22.3090387 C5.31082413,22.3090387 5.37064231,22.2994932 5.42823322,22.2800841 C15.3370514,18.9687659 19.665915,13.5463114 21.5520969,9.58017503 C23.6113696,5.25099321 23.2982787,1.7408114 23.2839605,1.5938114" id="Fill-1" fill="#39434E"></path>
            </g>
        </g>
    </g>
</svg>