<svg xmlns="http://www.w3.org/2000/svg" xmlns:xlink="http://www.w3.org/1999/xlink" viewBox="0 0 100 100" version="1.1" x="0px" y="0px"><title>teeth</title><desc>Created with Sketch.</desc><g stroke="none" stroke-width="1" fill="none" fill-rule="evenodd"><g fill="#000000"><g transform="translate(5.000000, 0.000000)"><path d="M56.5747526,17.8098196 C56.3284193,17.8098196 56.0761502,17.7698906 55.8298169,17.6826383 C45.9067387,14.1733215 39.7380179,10.6994972 39.4798131,10.5545697 C38.4128633,9.94971902 38.0403954,8.59509021 38.6473251,7.53031647 C39.2542548,6.46554274 40.6150239,6.09287193 41.6819737,6.69772257 C41.7413311,6.73173617 47.7943049,10.1345756 57.3196883,13.5004437 C58.4771582,13.9100858 59.082604,15.1789411 58.6730377,16.3339249 C58.3480558,17.2419403 57.4903409,17.8098196 56.5747526,17.8098196"></path><path d="M58.2326056,4.43951494 L58.2474449,4.43951494 L58.2326056,4.43951494 Z M44.7347263,61.8914522 C47.1936077,61.8914522 49.2473748,63.4028394 49.9685675,65.7438628 L57.4179249,89.9378882 C58.40771,93.1529133 60.8621397,95.3120379 63.5272882,95.3120379 C66.3467661,95.3120379 68.8471978,92.985803 69.7553665,89.5223307 L84.0501193,34.899438 C86.0311734,27.3262348 84.9464164,19.3315587 81.0688924,12.9695356 C76.6126334,5.65661047 67.1881577,2.85862171 59.145226,6.46258503 L49.8008828,10.6492162 C46.5792584,12.0910973 42.8857423,12.0910973 39.6700536,10.6492162 L30.3242265,6.46258503 C22.2798109,2.86010056 12.8568191,5.65661047 8.40204405,12.9695356 C4.52452001,19.3315587 3.43827907,27.3262348 5.41933325,34.899438 L19.71557,89.5223307 C20.6222547,92.985803 23.1241703,95.3120379 25.9421643,95.3120379 C28.6073128,95.3120379 31.0617425,93.1529133 32.0515276,89.9378882 L39.5023689,65.7438628 C40.2220777,63.4028394 42.2773287,61.8914522 44.7347263,61.8914522 L44.7347263,61.8914522 Z M63.5272882,99.7485951 C58.8944409,99.7485951 54.7305173,96.3294883 53.1634812,91.2407572 L45.7126399,67.0467317 C45.5212122,66.4196983 45.018158,66.3280095 44.7347263,66.3280095 C44.4527785,66.3280095 43.9497243,66.4196983 43.7568126,67.0467317 L36.3074553,91.2407572 C34.7404192,96.3294883 30.5750116,99.7485951 25.9421643,99.7485951 C21.0674354,99.7485951 16.8337668,96.0899142 15.4091885,90.6433008 L1.11295179,36.0189293 C-1.17230922,27.2907424 0.0979397576,18.0493937 4.59574893,10.6669624 C10.2154135,1.44483881 22.0587045,-2.10884354 32.1509513,2.41644484 L41.4952946,6.60307601 C43.5520295,7.52440106 45.9159391,7.52440106 47.9771258,6.60307601 L57.3199851,2.41644484 C67.4092641,-2.10884354 79.2525551,1.44335995 84.8737036,10.6669624 C89.3715128,18.0493937 90.6432457,27.2907424 88.3579847,36.0189293 L74.0617479,90.6433008 C72.6371696,96.0899142 68.403501,99.7485951 63.5272882,99.7485951 L63.5272882,99.7485951 Z"></path></g></g></g></svg>